# xmcd
#
# Track frame offsets: 
#        150
#        16040
#        23163
#        37754
#        49541
#        60089
#        70970
#        76764
#        86108
#        94321
#        106750
#        116963
#        130379
#        136787
#        156720
#        168038
#        183040
#        195923
#        209039
#        220280
#        231922
#        243985
#        254759
#        275492
#        297579
#        312986
#
# Disc length: 4417 seconds
#
# Revision: 0
# Processed by: cddbd v1.5.2PL0 Copyright (c) Steve Scherf et al.
# Submitted via: ExactAudioCopy v0.99pb1
#
DISCID=6e113f1a
DTITLE=Various Artist - The George Mitchell Collection, Volumes 1-7 - Disc 1
DYEAR=2008
DGENRE=Blues
TTITLE0=Cecil Barfield - Lucy Mae Blues
TTITLE1=Cecil Barfield - I Woke Up Crying
TTITLE2=Cecil Barfield - Love Blues
TTITLE3=Cecil Barfield - I Told You Not To Do That
TTITLE4=Buddy Moss - In The Evening
TTITLE5=Buddy Moss - Hey Lawdy Mama
TTITLE6=Buddy Moss - Thousand Woman Blues
TTITLE7=Buddy Moss - Blue Shadow Falling
TTITLE8=Buddy Moss - Cold Rainy Day
TTITLE9=Buddy Moss - Amy
TTITLE10=Leon Pinson - Motherless Child
TTITLE11=Leon Pinson - Hush Somebody Is Calling My Name
TTITLE12=Leon Pinson - What God Can Do
TTITLE13=Leon Pinson - He'll Understand and Say Well Done
TTITLE14=Houston Stackhouse - Big Road Blues
TTITLE15=Houston Stackhouse - Cool Water Blues
TTITLE16=Houston Stackhouse - Big Fat Mama Blues
TTITLE17=Houston Stackhouse - Take A Little Walk With Me
TTITLE18=Big Joe Williams - Everyone Got A Woman
TTITLE19=Big Joe Williams - What She Need With A Rooster
TTITLE20=Big Joe Williams - Sink Or Swim
TTITLE21=Big Joe Williams - Prison Bound
TTITLE22=John Lee Ziegler - Who's Gonna Be Your Man
TTITLE23=John Lee Ziegler - If I Lose Let Me Lose
TTITLE24=Othar Turner - Black Woman
TTITLE25=Othar Turner - Bumble Bee
EXTD=
EXTT0=
EXTT1=
EXTT2=
EXTT3=
EXTT4=
EXTT5=
EXTT6=
EXTT7=
EXTT8=
EXTT9=
EXTT10=
EXTT11=
EXTT12=
EXTT13=
EXTT14=
EXTT15=
EXTT16=
EXTT17=
EXTT18=
EXTT19=
EXTT20=
EXTT21=
EXTT22=
EXTT23=
EXTT24=
EXTT25=
PLAYORDER=
